<svg width="48" height="48" viewBox="0 0 48 48" fill="none" xmlns="http://www.w3.org/2000/svg">
  <path d="M14 23C17.3137 23 20 20.3137 20 17C20 13.6863 17.3137 11 14 11C10.6863 11 8 13.6863 8 17C8 20.3137 10.6863 23 14 23Z" stroke="currentColor" stroke-width="2" stroke-linecap="round" stroke-linejoin="round"/>
  <path d="M24.5451 21.9229C24.185 22.0229 23.805 22.0229 23.4449 21.9229M24.5451 21.9229L45 16.4538L24.2951 10.045C24.105 9.985 23.895 9.985 23.7049 10.045L3 16.4538L23.4449 21.9229M24.5451 21.9229L37.0081 18.5935V33.0009C37.0081 35.7604 31.1867 38 24.005 38C16.8233 38 11.0019 35.7604 11.0019 33.0009V18.5935L23.4449 21.9229M3 26.0021V16.5038" stroke="currentColor" stroke-width="2" stroke-linecap="round" stroke-linejoin="round"/>
  <path d="M30,30H2c-.7,0-1.3-.3-1.7-.9-.4-.6-.4-1.3-.2-1.9l2.8-7.4v-6.8C2.9,5,7.9,0,15.9,0s13,6.6,13,13v6.8l2.9,7.4c.3.6.2,1.3-.2,1.9-.4.6-1,.9-1.7.9h.1ZM16,2c-7,0-11,4-11,11v7.4l-2.9,7.6h28l-2.9-7.6v-7.4c0-5.3-3.4-11-11-11h-.2Z" fill="currentColor" stroke-width="0"/>
</svg>
