<svg width="48" height="48" viewBox="0 0 48 48" fill="none" xmlns="http://www.w3.org/2000/svg">
  <circle cx="24" cy="24" r="24" fill="#5f6a72"/>
  <path d="M39.31 17.46C41.95 17.46 44 19.36 44 22C44 24.64 41.64 27 39 27H35.88" stroke="white" stroke-width="2" stroke-linecap="round" stroke-linejoin="round"/>
  <path d="M12.28 14L20 19L15 22L21 27M6.43 14C5.11 14 4 15.06 4 16.38V16.79C5.41 25.75 10 34.99 21.57 34.99C33.14 34.99 37.72 25.74 39.14 16.79V16.38C39.14 15.06 38.02 14 36.71 14H6.43Z" stroke="white" stroke-width="2" stroke-linecap="round" stroke-linejoin="round"/>
  <path d="M16.1,32c-.8,0-1.7,0-2.5-.2-6.9-1-12.5-6.5-13.6-13.3-.3-1.7.8-3.2,2.4-3.5h26.5c1.7,0,3,1.3,3,3v.6c-1.3,7.9-8.1,13.5-15.9,13.5h.1ZM2.8,17c-.5.1-.8.6-.7,1.2.9,5.9,5.8,10.7,11.8,11.6,7.7,1.2,14.9-4,16.2-11.5v-.3c0-.5-.5-1-1-1,0,0-26.3,0-26.3,0ZM31,18.4h0Z" fill="white" stroke-width="0"/>
  <path d="M21,26.4c-.4,0-.7-.2-.9-.5-.2-.5,0-1.1.4-1.4,2-1.1,3.6-2.8,4.5-4.9.2-.5.8-.7,1.3-.5s.7.8.5,1.3c-1.1,2.6-3,4.6-5.5,5.9-.1,0-.3.1-.5.1h.2Z" fill="white" stroke-width="0"/>
  <path d="M31,28h-4.5c-.5,0-1-.5-1-1s.5-1,1-1h4.5c1.7,0,3-1.4,3-3s-1.3-3-3-3-1-.5-1-1,.5-1,1-1c2.8,0,5,2.2,5,5s-2.2,5-5,5Z" fill="white" stroke-width="0"/>
  <path d="M16,11c-.4,0-.8-.2-.9-.6l-.5-1.3c-.4-1.3-.3-2.6.3-3.6l.5-.9c.4-.6.4-1.2.2-1.8h0c0,0-.4-1.5-.4-1.5-.2-.5.1-1.1.7-1.2.5-.2,1.1.2,1.2.7l.4,1.3c.5,1.2.4,2.5-.3,3.6l-.5.9c-.3.5-.4,1.2-.1,1.9l.5,1.3c.2.5,0,1.1-.6,1.3h-.5Z" fill="white" stroke-width="0"/>
</svg>
