<svg width="48" height="48" viewBox="0 0 48 48" fill="none" xmlns="http://www.w3.org/2000/svg">
  <circle cx="24" cy="24" r="24" fill="#3d7a3d"/>
  <path d="M37 45C38.1 45 39 44.1 39 43V42.8C38.6 38 37.6 26.5 37.2 22C36.5 15.3 30.8 10.1 24 10C17.2 10.1 11.61 15.3 10.81 22C10.31 26.7 9.41003 38 9.01003 42.8C8.91003 43.9 9.71003 44.9 10.81 45H37Z" stroke="white" stroke-width="2" stroke-linecap="round" stroke-linejoin="round"/>
  <path d="M24 4.2C22 4.2 20.1 3.8 18.4 3L22.2 10H25.8L29.6 3C27.9 3.8 26 4.2 24 4.2Z" stroke="white" stroke-width="2" stroke-linecap="round" stroke-linejoin="round"/>
  <path d="M23.09 31.41L19.67 40.8M33.31 28.79C31.57 29.88 29.44 30.17 27.47 29.59V29.53C28.57 28.86 29.42 27.85 29.89 26.66C30.78 24.2 27.88 18.25 27.88 18.25C27.88 18.25 21.88 20.94 20.94 23.4C20.53 24.62 20.53 25.94 20.94 27.15H20.87C18.98 26.34 17.52 24.76 16.86 22.81C15.87 24.25 15.33 25.95 15.31 27.7C15.01 32.67 18.69 36.91 23.66 37.21C28.63 37.51 33.01 33.77 33.31 28.8V28.79Z" stroke="white" stroke-width="2" stroke-linecap="round" stroke-linejoin="round"/>
  <path d="M42 29L32 19M32 29L42 19M14 17L7 17.02C5.9 17.02 5 17.91 5 19V29.03C5 30.12 5.9 31.01 7 31.01H14L26.46 39.85C27.13 40.27 28 39.8 28 39.02V8.98999C28 8.20999 27.12 7.72999 26.46 8.15999L14 17Z" stroke="white" stroke-width="2" stroke-linecap="round" stroke-linejoin="round"/>
</svg>
